# xmcd
#
# Track frame offsets: 
#        150
#        27440
#        46920
#        69247
#        91045
#        115755
#        141557
#        162215
#        182167
#        211840
#
# Disc length: 3074 seconds
#
# Revision: 3
# Processed by: cddbd v1.5.2PL0 Copyright (c) Steve Scherf et al.
# Submitted via: ExactAudioCopy v0.99pb5
#
DISCID=820c000a
DTITLE=Satan And Adam - Harlem Blues
DYEAR=1991
DGENRE=Blues
TTITLE0=I Want You
TTITLE1=Groovy People
TTITLE2=Read My Lips
TTITLE3=Don't Get Around Much Anymore
TTITLE4=Ride The Wind
TTITLE5=Down Home Blues
TTITLE6=Sweet Home Chicago
TTITLE7=I Create The Music
TTITLE8=C.C. Rider
TTITLE9=Sunsine In The Shade
EXTD=
EXTT0=
EXTT1=
EXTT2=
EXTT3=
EXTT4=
EXTT5=
EXTT6=
EXTT7=
EXTT8=
EXTT9=
PLAYORDER=
